<svg width="168" height="153" viewBox="0 0 168 153" fill="none" xmlns="http://www.w3.org/2000/svg">
<path d="M84.0013 153L71.918 142.167C57.8902 129.528 46.293 118.625 37.1263 109.458C27.9596 100.292 20.668 92.0625 15.2513 84.7709C9.83464 77.4792 6.04991 70.7778 3.89714 64.6667C1.74436 58.5556 0.667969 52.3056 0.667969 45.9167C0.667969 32.8612 5.04297 21.9584 13.793 13.2084C22.543 4.45837 33.4457 0.083374 46.5013 0.083374C53.7235 0.083374 60.5985 1.61115 67.1263 4.66671C73.6541 7.72226 79.2791 12.0278 84.0013 17.5834C88.7235 12.0278 94.3485 7.72226 100.876 4.66671C107.404 1.61115 114.279 0.083374 121.501 0.083374C134.557 0.083374 145.46 4.45837 154.21 13.2084C162.96 21.9584 167.335 32.8612 167.335 45.9167C167.335 52.3056 166.258 58.5556 164.105 64.6667C161.953 70.7778 158.168 77.4792 152.751 84.7709C147.335 92.0625 140.043 100.292 130.876 109.458C121.71 118.625 110.112 129.528 96.0846 142.167L84.0013 153Z" fill="#D11472"/>
</svg>
