<svg width="168" height="153" viewBox="0 0 168 153" fill="none" xmlns="http://www.w3.org/2000/svg">
<path d="M84.0013 153L71.918 142.167C57.8902 129.528 46.293 118.625 37.1263 109.458C27.9596 100.292 20.668 92.0625 15.2513 84.7709C9.83464 77.4792 6.04991 70.7778 3.89714 64.6667C1.74436 58.5556 0.667969 52.3056 0.667969 45.9167C0.667969 32.8612 5.04297 21.9584 13.793 13.2084C22.543 4.45837 33.4457 0.083374 46.5013 0.083374C53.7235 0.083374 60.5985 1.61115 67.1263 4.66671C73.6541 7.72226 79.2791 12.0278 84.0013 17.5834C88.7235 12.0278 94.3485 7.72226 100.876 4.66671C107.404 1.61115 114.279 0.083374 121.501 0.083374C134.557 0.083374 145.46 4.45837 154.21 13.2084C162.96 21.9584 167.335 32.8612 167.335 45.9167C167.335 52.3056 166.258 58.5556 164.105 64.6667C161.953 70.7778 158.168 77.4792 152.751 84.7709C147.335 92.0625 140.043 100.292 130.876 109.458C121.71 118.625 110.112 129.528 96.0846 142.167L84.0013 153ZM84.0013 130.5C97.3346 118.556 108.307 108.313 116.918 99.7709C125.529 91.2292 132.335 83.7987 137.335 77.4792C142.335 71.1598 145.807 65.5348 147.751 60.6042C149.696 55.6737 150.668 50.7778 150.668 45.9167C150.668 37.5834 147.89 30.6389 142.335 25.0834C136.779 19.5278 129.835 16.75 121.501 16.75C114.974 16.75 108.932 18.5903 103.376 22.2709C97.8208 25.9514 94.0013 30.6389 91.918 36.3334H76.0846C74.0013 30.6389 70.1819 25.9514 64.6263 22.2709C59.0707 18.5903 53.0291 16.75 46.5013 16.75C38.168 16.75 31.2235 19.5278 25.668 25.0834C20.1124 30.6389 17.3346 37.5834 17.3346 45.9167C17.3346 50.7778 18.3069 55.6737 20.2513 60.6042C22.1957 65.5348 25.668 71.1598 30.668 77.4792C35.668 83.7987 42.4735 91.2292 51.0846 99.7709C59.6957 108.313 70.668 118.556 84.0013 130.5Z" fill="white"/>
</svg>
