<svg width="120" height="106" viewBox="0 0 120 106" fill="none" xmlns="http://www.w3.org/2000/svg">
<path d="M59.9999 106L51.2999 98.4907C41.1999 89.7295 32.85 82.1717 26.2499 75.8172C19.6499 69.4634 14.4 63.7588 10.5 58.7044C6.59999 53.6499 3.87499 49.0045 2.325 44.7684C0.775 40.5323 0 36.1998 0 31.7711C0 22.7212 3.14999 15.1635 9.45 9.09811C15.75 3.0327 23.5999 0 32.9999 0C38.1999 0 43.1499 1.05904 47.8499 3.17711C52.5499 5.29519 56.5999 8.27974 59.9999 12.1308C63.3998 8.27974 67.4498 5.29519 72.1496 3.17711C76.8498 1.05904 81.7998 0 86.9996 0C96.3999 0 104.25 3.0327 110.55 9.09811C116.85 15.1635 120 22.7212 120 31.7711C120 36.1998 119.225 40.5323 117.674 44.7684C116.125 49.0045 113.4 53.6499 109.5 58.7044C105.6 63.7588 100.35 69.4634 93.7496 75.8172C87.1501 82.1717 78.7995 89.7295 68.6998 98.4907L59.9999 106Z" fill="white"/>
</svg>
